<svg xmlns="http://www.w3.org/2000/svg" viewBox="0 0 196.74 204.07"><defs><style>.cls-1{fill:#efd4e8;}</style></defs><title>Fichier 1</title><g id="Calque_2" data-name="Calque 2"><g id="Calque_2-2" data-name="Calque 2"><path class="cls-1" d="M35.09,66.08C32.91,46.6,45.87,30.59,49.3,26.36A64.38,64.38,0,0,1,85,4.32c10.17-3.06,32.91-8.23,58.39.56,7.19,2.48,20.52,7.26,32.63,20.19A78.85,78.85,0,0,1,193.66,56.9a82.39,82.39,0,0,1,1.08,40.39c-4,28.66-20.48,50.84-41.63,55.9-4.78,1.14-13.42,2.28-24.68-1.46A365,365,0,0,1,72,112.79C38.16,84.34,35.71,71.59,35.09,66.08Z"/><path class="cls-1" d="M21.91,109.56a10.93,10.93,0,0,0,3.89-5.51C27,99.7,24,97.69,24.74,93.2a12.18,12.18,0,0,1,9.51-9.52c.85-.14,3.54-.55,5.46,1.24s2.4,5.5,1,7.45c-1.61,2.27-4.48.77-6.47,2.9-2.24,2.39.55,5.33-1,10.15-1.64,5-6.6,7.85-9.2,9.33a19.08,19.08,0,0,1-5.12,2.14c-2.79.68-3.69.17-6.12.75A16.35,16.35,0,0,0,6.38,121c-4.4,3.35-6,7-6.32,6.75s1.09-6.53,6.12-10.48c2-1.55,3.07-1.61,10.52-5.18C18.94,111.05,20.76,110.14,21.91,109.56Z"/><path class="cls-1" d="M40.92,125.43c5.72-5.08,7.33-9.58,7.69-12.84.38-3.48-.62-5.83,1-7.87,2.11-2.63,7.43-3.26,9.71-1,3.66,3.57-.21,14.78-5.66,21.53a27.8,27.8,0,0,1-13,8.91c-4.63,1.41-5.73.19-8.7,1.86-4.77,2.69-4.52,7.32-8.7,14.49-5.21,9-12.46,13.53-12.74,13.26s5-4.13,7.48-11.6c1.55-4.61.44-5.79,2.23-10.56a25.71,25.71,0,0,1,6.47-9.94A24.42,24.42,0,0,1,40.92,125.43Z"/><path class="cls-1" d="M58.17,134.7c6-4,10.6-3.64,12.14-7.87.92-2.53,0-4.54,1.62-6s4.64-1.38,6.47,0c2.66,2,2.56,6.7,1.42,9.73-.44,1.15-1.68,3.81-12.34,9.94-7.26,4.18-8.19,3.82-9.76,6-3,4.24-1,7.58-3.6,13.67-1.62,3.75-3.9,5.92-7.08,8.9-10.37,9.7-16.09,8.22-23.26,15.12-9,8.67-9.47,20.15-10.32,19.88s-.58-14.21,8.05-24.26c4-4.64,10.86-9.77,13-11.36,5.28-3.94,7.85-5.12,9.91-8.91,2.42-4.43.59-5.94,2.63-11.38C50,140.41,56.54,135.78,58.17,134.7Z"/><path class="cls-1" d="M88.72,145.67C89.8,143.35,92,138.72,96,138a6.21,6.21,0,0,1,5,1.25,5.71,5.71,0,0,1,1.89,3.71c.14,3-3.12,4.69-5.93,7.67-5.09,5.41-2.28,8.39-7.08,15.32a32.17,32.17,0,0,1-12.54,10.36c-6.32,2.9-8.75,1.28-11.74,4.35-3.65,3.75-1.37,7.59-4.45,13.25-4.39,8.1-14.48,10.24-14.76,9.73s9.74-3.86,12.54-12.84c1.47-4.7-.62-5.94,1-9.73,2.55-5.93,8.38-4.56,16.79-11.8,3.33-2.87,7.19-6.19,9.11-11.81C87.47,152.84,86.29,150.84,88.72,145.67Z"/><path class="cls-1" d="M114.33,157.48c1.77-2.08,5-3.92,7.08-2.9,2.65,1.3,2.78,6.88,1.74,10.67-1.39,5-5.16,8-10.43,12.11a38.34,38.34,0,0,1-9.31,5.8c-3,1.25-4.73,1.44-8.29,3.31-2.86,1.49-4.43,2.32-5.87,3.93-4,4.47-3.13,10.79-3.64,10.77s-2.71-6.47,0-12.22c2.39-5.08,6.16-4.37,17-12.83,7.23-5.65,8.32-8.12,8.7-9.12C112.81,163.11,111.85,160.4,114.33,157.48Z"/></g></g></svg>